<svg xmlns="http://www.w3.org/2000/svg" width="20" height="12" viewBox="0 0 20 12" fill="none"><path d="M15.625 6.66668H4.375C4.025 6.66668 3.75 6.37334 3.75 6.00001C3.75 5.62668 4.025 5.33334 4.375 5.33334H15.625C15.975 5.33334 16.25 5.62668 16.25 6.00001C16.25 6.37334 15.975 6.66668 15.625 6.66668Z" fill="black"></path><path d="M12.5 11.3333C12.418 11.3344 12.3368 11.3172 12.2614 11.2827C12.1861 11.2483 12.1183 11.1974 12.0625 11.1333C11.8125 10.8667 11.8125 10.4533 12.0625 10.1867L16 5.98668L12.0625 1.78668C11.8125 1.52001 11.8125 1.10668 12.0625 0.840015C12.3125 0.573348 12.7 0.573348 12.95 0.840015L17.325 5.50668C17.575 5.77335 17.575 6.18668 17.325 6.45335L12.95 11.12C12.825 11.2533 12.6625 11.32 12.5125 11.32L12.5 11.3333Z" fill="black"></path></svg>